<?xml version="1.0" standalone="no"?><!DOCTYPE svg PUBLIC "-//W3C//DTD SVG 1.1//EN" "http://www.w3.org/Graphics/SVG/1.1/DTD/svg11.dtd"><svg class="icon" width="200px" height="200.00px" viewBox="0 0 1024 1024" version="1.1" xmlns="http://www.w3.org/2000/svg"><path fill="#666666" d="M780.6 127.2H354.4c-63 0-113.8 50.7-113.8 113.8v426.2c0 63 50.7 113.8 113.8 113.8h426.2c63 0 113.8-50.7 113.8-113.8V241c0-63-50.7-113.8-113.8-113.8z m52.4 537c0 29.7-24.3 55.4-55.4 55.4H357.4c-29.7 0-55.4-24.3-55.4-55.4V244c0-29.7 24.3-55.4 55.4-55.4h420.2c29.7 0 55.4 24.3 55.4 55.4v420.2zM155.6 279.3c-15.2 0-27 11.8-28.6 25.5v473.5c3.6 65.2 57 116.3 123.1 116.3h464.6c15.1 0 27.4-12.3 28.8-27.4 0-16.4-13.7-28.8-28.8-28.8l-463.1 0.1c-37 0-67.2-30.2-67.2-67.2V308.1c0-16.4-13.7-28.8-28.8-28.8z" /></svg>